<?xml version="1.0" encoding="UTF-8"?> <svg xmlns="http://www.w3.org/2000/svg" xmlns:xlink="http://www.w3.org/1999/xlink" width="613.604" height="513.155" viewBox="0 0 613.604 513.155"><defs><clipPath id="a"><rect width="613.604" height="513.155" fill="none"></rect></clipPath><clipPath id="b"><rect width="613.606" height="513.156" fill="none"></rect></clipPath><clipPath id="c"><rect width="107.325" height="85.583" fill="none"></rect></clipPath><clipPath id="d"><rect width="69.526" height="99.072" fill="none"></rect></clipPath><clipPath id="e"><rect width="16.577" height="18.794" fill="none"></rect></clipPath><clipPath id="f"><rect width="57.17" height="27.535" fill="none"></rect></clipPath><clipPath id="g"><rect width="90.945" height="39.359" fill="none"></rect></clipPath><clipPath id="h"><rect width="77.509" height="32.637" fill="none"></rect></clipPath><clipPath id="i"><rect width="38.323" height="91.128" fill="none"></rect></clipPath><clipPath id="j"><rect width="18.904" height="22.967" fill="none"></rect></clipPath><clipPath id="k"><rect width="18.513" height="34.967" fill="none"></rect></clipPath><clipPath id="l"><rect width="18.884" height="16.063" fill="none"></rect></clipPath><clipPath id="m"><rect width="80.844" height="107.231" fill="none"></rect></clipPath><clipPath id="n"><rect width="59.256" height="20.143" fill="none"></rect></clipPath><clipPath id="o"><path d="M449.687,110.311l-.646-1.113c1.511-2.051,3.02-4.165,4.518-6.312,1.06,4.973,2.97,8.812,6.569,10.844,4.773,2.7,11.329,1.528,20.625-3.683,1.092-.612,2.2-1.28,3.3-2-1.734,15.288-6.277,25.726-12.347,27.567a4.248,4.248,0,0,1-1.251.188c-6.022,0-13.2-12.416-20.77-25.49m12.964-1.048c-2.946-1.664-4.208-6.561-4.822-12.6.17-.251.339-.5.506-.751a221.736,221.736,0,0,0,26.388,3.162q-.048,1.208-.113,2.387a57.862,57.862,0,0,1-6.364,4.117c-5.247,2.938-9.417,4.418-12.459,4.418a6.281,6.281,0,0,1-3.136-.728M420.818,96.22c3.428-3.738,2.41-10.08.536-17.583,8.287,8.067,15.258,19.414,21.552,30.208-8.216,10.824-16.395,19.352-22.918,19.9a6.879,6.879,0,0,1-5.82-2.5c-6.427-6.845-10.872-18.673-12.77-29.722a72.2,72.2,0,0,0,8.587,1.984,22.224,22.224,0,0,0,3.757.352c3.123,0,5.456-.875,7.075-2.641m-9.965-2.766a62.741,62.741,0,0,1-10.209-2.574c-.8-8.438.082-15.751,2.918-19.038,2.249-2.609,5.972-2.192,11.056,1.236.251.977.506,1.949.758,2.909,1.775,6.772,3.789,14.451,1.664,16.767a4.492,4.492,0,0,1-3.29.979,17.463,17.463,0,0,1-2.9-.28m50.6-2.2q1.148-1.721,2.28-3.431c5.979-9.005,11.627-17.51,16.017-22.478.495-.559.988-1.089,1.483-1.585a119.149,119.149,0,0,1,3.594,30.173,221.118,221.118,0,0,1-23.374-2.678M442.925,80.236c-1.606-5.586.951-13.086,6.45-19.584,2.134,6.784,2.412,15.536,2.685,24.138.047,1.437.091,2.851.143,4.235-4.134-1.588-7.98-4.268-9.279-8.79m47.21,14.043c-.063-.006-.125-.009-.188-.013.013-10.724-1.223-24.012-4.373-34.1,3.089-1.985,6.033-2.613,8.6-1.788,3.769,1.217,6.47,5.605,7.053,11.452.675,6.795-1.615,16.07-8.986,24.58-.7-.045-1.4-.09-2.107-.132m-32.948-9.651c-.3-9.317-.631-19.866-3.861-28,6.807-6.005,14.475-8.458,20.206-6.387,2.181.784,4.215,3.726,5.94,8.14a39.013,39.013,0,0,0-3.571,3.575c-4.623,5.231-10.366,13.879-16.445,23.037l-2.147,3.232q-.068-1.793-.121-3.593M419.133,69.993c-1.846-7.543-3.069-15.11.333-18.917,2.674-2.995,8.41-3.88,17.056-2.626a14.084,14.084,0,0,1,10.6,7.038C439.292,63.712,435.73,73.765,438,81.65c1.26,4.392,4.836,9.938,14.495,12.9.018.253.037.506.056.757-2.077,3.053-4.193,6.1-6.322,9.048-7.568-12.876-16.156-26.263-27.092-34.367m-3.491-22.335c-4.111,4.6-3.94,11.523-2.561,18.712-7.2-3.117-11.391-.209-13.4,2.124-3.5,4.06-4.842,11.521-4.423,20.056-8.162-4.323-11.9-10.7-10.693-18.684,1.49-9.9,10.019-17.637,14.519-17.062a2.565,2.565,0,1,0,.659-5.088c-8.263-1.065-18.494,9.722-20.251,21.387-.867,5.773-.473,18.158,16.319,25.4,1.745,13.008,7.043,27.182,14.621,35.252a11.915,11.915,0,0,0,9.99,4.1c7.9-.664,16.605-9.112,25.266-20.223,9.729,16.806,17.465,29.921,27.512,26.889,3.452-1.048,14.274-6.729,16.4-36.565a57.568,57.568,0,0,0,4.626-4.278c20.686,1.4,35.5,3.919,58.419,29.82,29.284,33.1,46.716,35.727,66.461,35.727,11.209,0,20.828-3.85,27.819-11.136a36.316,36.316,0,0,0,9.944-24.331c.26-16.3-10.645-33.1-35.6-33.9-18.358-.582-26.161,7.655-29.171,12.62a24.59,24.59,0,0,0,.056,24.764c4.84,8.594,13.6,13.524,24.044,13.524,9.09,0,16.078-3.445,19.171-9.448a14.65,14.65,0,0,0-1.2-15.262c-3.834-5.374-10.52-7.807-18.338-6.676a2.565,2.565,0,0,0,.733,5.077c5.857-.851,10.75.82,13.429,4.576a9.544,9.544,0,0,1,.817,9.936c-2.183,4.238-7.509,6.668-14.612,6.668-8.535,0-15.669-3.977-19.574-10.913a19.461,19.461,0,0,1-.141-19.587c4.2-6.923,12.961-10.5,24.622-10.153,15.468.5,30.938,9.562,30.631,28.694-.242,15.117-11.529,30.42-32.634,30.42-15.252,0-32.539,0-62.62-34-22.787-25.757-38.648-29.686-58.1-31.259,5.411-7.153,8.914-15.867,7.952-25.522-.787-7.907-4.84-13.97-10.58-15.822-2.466-.794-6.7-1.258-11.981,1.77-2.153-4.952-4.948-8.579-8.5-9.859-7.2-2.581-16.345-.093-24.341,6.517a18.668,18.668,0,0,0-13.67-8.552,53.124,53.124,0,0,0-7.572-.6c-6.5,0-11.127,1.617-14.046,4.885" transform="translate(-379.23 -42.773)" fill="none"></path></clipPath><linearGradient id="p" x1="-0.522" y1="4.056" x2="-0.52" y2="4.056" gradientUnits="objectBoundingBox"><stop offset="0" stop-color="#ff7a4e"></stop><stop offset="0.498" stop-color="#ff7a4e"></stop><stop offset="0.696" stop-color="#1d808c"></stop><stop offset="1" stop-color="#1d808c"></stop></linearGradient></defs><g clip-path="url(#a)"><g transform="translate(0 -0.001)"><g clip-path="url(#b)"><path d="M1099.208,753.6c-1.956-1.235-10.177,1.619-12.49,2.775s-1.851,6.708-1.851,6.708S1108,764.7,1108,764.006s-4.4-7.633-8.79-10.409" transform="translate(-667.48 -463.49)" fill="#f2b592"></path><path d="M1098.728,764.75h10s-5.188-3.816-10,0" transform="translate(-676.031 -469.495)" fill="#e3a886"></path><path d="M1107.383,740.964c.8.109,1.44-.105,2.245,0l8.06-15.513-2.031-1.055Z" transform="translate(-681.357 -445.709)" fill="#114450"></path><path d="M991.388,1036.814a5.829,5.829,0,0,0-6.769,4.7l-18.577,103.249a3.33,3.33,0,0,0,6.522,1.335l23.473-102.247c.019-.083.04-.187.056-.272a5.829,5.829,0,0,0-4.7-6.769" transform="translate(-594.36 -637.878)" fill="#412c2a"></path><path d="M1227.171,1050.693c-.032-.073-.073-.167-.108-.241a5.829,5.829,0,1,0-10.527,5.007l47.384,99.644a3.329,3.329,0,0,0,6.075-2.722Z" transform="translate(-748.167 -644.28)" fill="#412c2a"></path><path d="M1274.645,1036.358a5.829,5.829,0,1,0-11.64.65l5.967,106.83a3.33,3.33,0,0,0,6.654-.216l-.973-106.992c0-.083,0-.188-.009-.272" transform="translate(-777.103 -634.268)" fill="#5d3d3d"></path><path d="M1452.633,1050.693c-.032-.073-.073-.167-.108-.241a5.829,5.829,0,1,0-10.528,5.007l47.384,99.644a3.33,3.33,0,0,0,6.076-2.722Z" transform="translate(-886.891 -644.28)" fill="#5d3d3d"></path><path d="M1155.91,621.481s-58.63-.463-87.779,0c-21.858.347-24.981,15.96-24.981,15.96s-8.327,24.287-18.042,53.779c-6.347,19.266-20.817,21.165-20.817,21.165s-82.83.7-85,.711c0,0-11.32.677-9.6,15.562,1.921,16.662,12.43,52.237,14.938,69.078a21.982,21.982,0,0,0,17.348,18.736c179.584,1.455,179.541.8,190.689,0,19.429-1.388,22.9-20.124,22.9-20.124s5.2-22.205,9.02-52.738c4.273-34.186,8.327-99.23,8.327-99.23,2.082-22.9-17-22.9-17-22.9" transform="translate(-559.61 -382.261)" fill="#1c7d87"></path><g transform="translate(357.941 330.124)" opacity="0.1"><g clip-path="url(#c)"><path d="M1017.148,858.1l-86.741.925,22.205,84.658h85.122l-4.626-30.07s-15.729-54.588-15.96-55.513" transform="translate(-930.407 -858.098)"></path></g></g><path d="M1145.112,1011.775H1021.219a11.45,11.45,0,1,0,0,22.9h123.894a11.45,11.45,0,0,0,0-22.9" transform="translate(-621.296 -622.53)" fill="#1c7d87"></path><path d="M1514.374,621.757s11.8,3.816,11.1,19.083c-.463,10.183-10.006,41.2-14.688,58.867-3.586,13.532-11.912,12.144-11.912,12.144s25.955,52.026,27.294,40.71c10.755-90.9,9.368-107.9,9.368-107.9s4.51-23.94-21.164-22.9" transform="translate(-922.237 -382.537)" fill="#176870"></path><path d="M945.425,941.167,929.163,868.69a11.239,11.239,0,0,0-21.933,4.922l18.227,81.234a11.239,11.239,0,0,0,10.94,8.777l108.281.255c-.348-7.483-.3-14.89.033-22.478Z" transform="translate(-558.036 -529.089)" fill="#1c7d87"></path><path d="M1170.4,643.036c-11.15,35.22-28.439,77.2-28.439,77.2l20.127,9.185,32.551-68.607s-4-25.069-4.157-38.322c0,0-14.642,3.362-20.082,20.545" transform="translate(-702.633 -383.009)" fill="#fff"></path><path d="M1177.78,658.413c-3.625,10.294-12.415,31.779-18,41.36-3.5,6.011-4.285,9.808-10.277,12.877-4.429,11.377-7.543,18.938-7.543,18.938l20.126,9.185,32.551-68.607s-2.822-17.705-3.818-31.223c-9.116,6.346-9.366,7.033-13.041,17.47" transform="translate(-702.633 -394.362)" fill="#ededed"></path><path d="M976.367,1281.534l-16.418-1.739s-10.764,8.692-29.307,13.907c-1.809.509-5.669,5.282-3.414,6.7h43.288c3.085,0,6.251-2.522,6.544-5.593.3-3.178-.9-7.271-.693-13.272" transform="translate(-570.087 -787.439)" fill="#f2b592"></path><path d="M969.71,1304.99c-7.3,2.4-22.691,3.213-23.565,2.687a29.926,29.926,0,0,0-9.631-3.919c-2,.755-6.2,1.441-8.525,2.249-6.332,2.194-5.664,6.609-2.892,7.336h40.981c3.086,0,9.855,1.333,9.586-4.867-.008-.179-1.074-7.458-1.058-7.644-.467,1.4-1.847,3.155-4.9,4.158" transform="translate(-567.956 -800.382)" fill="#0d4042"></path><path d="M821.545,1147.308l-20.595,17.426s-5.949,3.5-13.73,8.449c-5.809,3.7-.3,9.756,9.505,8.449,15.842-2.113,17.1-6.222,23.455-6.258,8.687-.049,12.955-4.368,12.955-4.368s4.2-1.82,3.44-20.352Z" transform="translate(-482.906 -705.921)" fill="#f2b592"></path><path d="M809.51,1194.951c-7.491,1.936-4.595,1.038-10.8-3.529-2.6-1.917-4.223-.491-3.321-1.549-1.7,1.055-8.205,4.579-10.23,5.867-5.809,3.7.6,9.7,10.4,8.393,15.842-2.113,16.39-4.559,22.707-5.281,12.463-1.424,15.838-4.756,15.838-4.756s1.737-3.666,1.236-10.219c.078,3.185-13.741,7.951-25.829,11.074" transform="translate(-481.739 -728.422)" fill="#0d4042"></path><path d="M1252.477,498.328s-2.586,9.209-4.81,28.433c-2.194,18.976,10.725,17.942,10.725,17.942s19.676-.957,33.077,9.174c7.433,5.619,7.173-49.263,7.173-49.263Z" transform="translate(-767.517 -306.613)" fill="#98603c"></path><path d="M1101.817,863.519s-69.387,20.66-97.122,27.443-23.812,33.381-23.812,33.381,34.477-1.418,40.192-4.14,92.51,1.432,92.51,1.432c23.382-3.34,16.187-46.774,16.187-46.774Z" transform="translate(-603.405 -531.31)" fill="#176671"></path><path d="M1238.317,613.29c-10.011,5.252-12.036,14.8-13.249,22.93a66.025,66.025,0,0,1-5.452,18.973c-6.254,14.01,1.954,21.851,1.954,21.851s7.771,32.091-4.083,38.188c1.027.815,12.606,5.2,14.27,6.22.735.449,1.252.784,1.605,1.031a11.087,11.087,0,0,1,1.368.323c2.718.769,5.367,1.729,8.115,2.407,2.082.515,4.182.933,6.291,1.308-.178-.119,5.211.518,6.183.581a167.924,167.924,0,0,0,18.361.106c1.021-.046,2.038-.144,3.058-.2,3.883-11.264,14.137-58.073,17.264-77.856,3.161-20-3.87-27.729-3.87-27.729-27.433-21.337-51.818-8.129-51.818-8.129" transform="translate(-748.966 -374.861)" fill="#fff"></path><path d="M1289.142,649.726c-5.75,4.009-16.109,14.21-19.957,26.389-1.8,5.7-.5,35.479-5.731,37.317-7.513,2.641-36.622,6.442-39.034,6.549.288,8.4-.947,15.252-6.576,18.146,1.027.815,12.606,5.2,14.27,6.22.735.449,1.252.784,1.605,1.03a11.216,11.216,0,0,1,1.368.323c2.719.769,5.367,1.73,8.115,2.408,2.082.514,4.182.933,6.291,1.308-.178-.12,5.21.518,6.183.581a167.851,167.851,0,0,0,18.361.107c1.021-.046,2.038-.144,3.058-.2,3.883-11.264,14.137-58.074,17.264-77.857,2.231-14.114-.608-22.095-2.476-25.583a7.813,7.813,0,0,1-2.741,3.265" transform="translate(-749.322 -397.757)" fill="#ededed"></path><path d="M1063.458,778.255l28.884,45.591H1128.3l-28.883-45.591Z" transform="translate(-654.33 -478.848)" fill="#848484"></path><path d="M1156.924,775.48l28.883,45.591,1.179-1.735L1158.1,773.745Z" transform="translate(-711.839 -476.073)" fill="#c7c7c7"></path><path d="M1063.458,775.48h35.958l1.178-1.735h-35.957Z" transform="translate(-654.33 -476.073)" fill="#b0b0b0"></path><path d="M1042.554,894.022s-16.13-8.552-55.16-11.8c-29.318-2.443-46.358,2.156-53.022,4.6a10.958,10.958,0,0,0-5.51,4.381l-.018.029a81.232,81.232,0,0,0-12.285,20.857c-5.8,14.327-40.345,71.693-40.345,71.693l17.427,7.406s30.915-31.077,41.241-45.461c4.657-6.487,11.682-19,12.541-31.141,14.61,3.367,56.981,16.722,84.954,18.651,34.089,2.349,30.532-15.96,30.532-15.96Z" transform="translate(-539.122 -542.388)" fill="#0d4042"></path><path d="M1070.354,925.894c-3.883,8.24-12.183,11.726-24.3,10.76-18.728-1.493-36.459-4.88-53.794-12.3-4.744-.548-25.968-9.326-34.821,3-4.49,11.991-10.823,23.335-15.722,35.178a220.292,220.292,0,0,1-18.663,34.609,121.582,121.582,0,0,1-12.606,16.4l4.258,1.809s30.915-31.077,41.242-45.461c4.657-6.486,11.681-19,12.54-31.141,14.61,3.367,56.981,16.722,84.954,18.651,34.089,2.349,30.532-15.961,30.532-15.961Z" transform="translate(-560.184 -566.564)" fill="#0c3b3d"></path><path d="M1044.453,942.649a16.724,16.724,0,0,0-14.741,1.14c-3.65,2.175-7.424,5.317-8.786,9.468-2.932,8.933-14.582,120.077-14.582,120.077l19.388,3.29s12.316-45.352,18.171-63.369c6.865-21.123,6.672-36.841,4.753-40.133s56.426-3.74,56.426-3.74Z" transform="translate(-619.189 -579.262)" fill="#0d4042"></path><path d="M1118.352,999.538c-17.036-1.027-29.312.715-46.023-2.676-.454.065-9-3.073-9.868,7.685-.162,2.626-.09,5.113-.247,6.715-3.558,36.349-20.052,96.578-20.65,98.232l5.837.991s12.317-45.352,18.172-63.369c6.865-21.123,6.671-36.84,4.753-40.133s56.426-3.74,56.426-3.74Z" transform="translate(-640.86 -613.121)" fill="#0c3b3d"></path><path d="M1289.738,639.66c-8.611-7.395-12.855-1.287-16.485,4.112-3.727,5.544-5.738,31.863-2.631,54.254a107.8,107.8,0,0,1,.739,18.045c-16.114,1.154-54.044-.492-54.044-.492l-1.712,10.4s37.147,11.9,67.818,10.483c12.03-.554,12.592-27.7,12.153-57.056-.264-17.667,1.783-33.207-5.837-39.75" transform="translate(-747.943 -391.468)" fill="#f2b592"></path><path d="M1310.031,636.282c-8.92-7.02-12.229.347-15.858,5.746-3.727,5.544-7.644,28.051-4.537,50.442a107.8,107.8,0,0,1,.739,18.046c-9.893.708-26.1,4.172-38.609,3.8a53.285,53.285,0,0,1-2.162,14.275c12.534,2.919,34.458,7.067,54.738,6.133,12.03-.554,12.019-27.569,14.062-56.855,1.191-17.076,2.25-33.225-8.373-41.585" transform="translate(-768.863 -389.724)" fill="#fff"></path><g transform="translate(480.739 246.06)" opacity="0.6"><g clip-path="url(#d)"><path d="M1310.031,640.088c-.24-.189-.462-.328-.695-.5a59.054,59.054,0,0,1,5.381,21.167c.742,13.074-1.216,27.433-2.7,40.446-1.494,13.1-7.347,24.265-20.546,28.736-13.005,4.4-27.795,1.563-40.826-1.955-.314,1.474-.657,2.944-1.043,4.411,12.534,2.919,34.458,7.067,54.738,6.133,12.03-.554,12.019-27.569,14.062-56.855,1.191-17.076,2.25-33.225-8.373-41.585" transform="translate(-1249.602 -639.591)" fill="#e7e7e7"></path></g></g><path d="M1287.52,571.62l1.338,12.536s-.92,10.082,5.173,10.542c3.216.243,12.443-3.733,16.4-9.7l-5.884-17.366Z" transform="translate(-792.192 -349.254)" fill="#f2b592"></path><g transform="translate(495.328 218.51)" opacity="0.08"><g clip-path="url(#e)"><path d="M1287.519,571.833l1.339,12.536a19.294,19.294,0,0,0-.025,2.4c.711-.078,1.431-.133,2.133-.238,10.876-1.638,13.778-8.947,13.018-18.556Z" transform="translate(-1287.519 -567.977)"></path></g></g><path d="M1276.88,462.8c-14.029,1.1-16.576,23.062-16.168,32.152s1.044,16.6,6.387,20.766,18.09-1.747,22.56-5.288c9.16-7.255,13.375-21.506,13.575-28.6s-12.325-20.136-26.355-19.031" transform="translate(-775.673 -284.711)" fill="#f2b592"></path><path d="M1266.5,448.82c-11.376,5.041-13.66,20.834-13.66,20.834s27.982,2.621,30.407,4.917c1.289,1.221,2.155,6.492,1.814,11.365-1.751,25.07-9.926,38.2-9.926,38.2s19.31.7,27.419-9.565,2.443-52-6.469-60.435-18.209-10.36-29.586-5.319" transform="translate(-770.854 -274.454)" fill="#98603c"></path><path d="M1370.9,854.491l-67.111,3.934-25.875,102,77.257.463c21.743.462,27.063-21.049,27.063-21.049,3.932-13.185,9.02-49.731,9.483-66.385s-20.817-18.967-20.817-18.967" transform="translate(-786.284 -525.755)" fill="#176870"></path><path d="M1297.833,865.084a11.238,11.238,0,0,0-13.715,8.032L1265.5,944.359l-.912,0c-.335,7.588-.382,14.994-.033,22.477l9.592.023h.027a11.239,11.239,0,0,0,10.874-8.4l20.817-79.66a11.239,11.239,0,0,0-8.032-13.716" transform="translate(-777.915 -532.046)" fill="#1c7d87"></path><path d="M1152.589,812.331l-5.949-1a62.078,62.078,0,0,0-6.188-.781c-2.117-.058-4.1.008-6.12.067l-6.021.251a1.643,1.643,0,0,0,.045,3.285h.033l5.959.085c1.972.051,3.986.1,5.858.261,1.7.173,3.74.648,5.646,1.043l5.807,1.307.047.01c.039.009.077.016.116.023a2.306,2.306,0,0,0,.766-4.548" transform="translate(-693.265 -498.703)" fill="#f2b592"></path><path d="M1157.178,826.292l-5.531-.83c-1.86-.262-3.672-.529-5.629-.725-2.046-.15-3.857-.108-5.748-.1l-5.6.119a1.643,1.643,0,0,0-.037,3.284l.037,0,5.524.241c1.815.107,3.718.2,5.362.435,1.723.267,3.567.636,5.364.991l5.424,1.118.036.008.116.02a2.306,2.306,0,0,0,.684-4.561" transform="translate(-697.155 -507.379)" fill="#f2b592"></path><path d="M1162.318,840.293c-3.542-.6-7.009-1.2-10.661-1.657a49,49,0,0,0-5.55-.166c-1.8.016-3.581.06-5.378.118a1.644,1.644,0,0,0-.009,3.286h.009c1.757.068,3.529.152,5.281.261a50.127,50.127,0,0,1,5.084.5c3.376.607,6.88,1.4,10.31,2.178l.027.006c.038.008.076.016.115.022a2.306,2.306,0,1,0,.771-4.547" transform="translate(-700.897 -515.894)" fill="#f2b592"></path><path d="M1168.309,813.668c-2.07-1.052-10.809-1.218-10.809-1.218-.129.5,1.591,9.776,2.655,15.4-1.383-.15-2.77-.236-4.156-.321l-5.087-.329a1.644,1.644,0,0,0-.346,3.267q5.219.78,10.4,1.628c.025.015,10.756,6.339,20.35,2.5l2.133-9.494s-10.3-8.979-15.139-11.437" transform="translate(-707.062 -499.888)" fill="#f2b592"></path><path d="M1178.827,861.93c-5.676-.768-11.094-3.092-14.826-4-4.492.017-8.986-.444-13.509-.422a2.031,2.031,0,0,1-.6-.085,1.634,1.634,0,0,0,1.124.719q5.218.78,10.4,1.629c.022.013,8.351,4.917,16.892,3.464l10.113,2.5.663-2.743Z" transform="translate(-707.51 -527.557)" fill="#e3a886"></path><path d="M472.739,1244.784c-.189.943-2.515,9.663-2.515,9.663s5.295,6.618,11.648,5.56a21.757,21.757,0,0,0,10.192-4.5l-2.251-10.722Z" transform="translate(-289.322 -765.897)" fill="#e39c7f"></path><path d="M521.012,1269.67c-4.56-.142-12.114.143-17.815-3.135s-18.669-9.976-18.669-9.976a7.817,7.817,0,0,0-1.621,2.18c-.469.969-1.372,2.909-1.372,2.909-2.28,1.425-12.114,2.607-13.824-.1s-3.848-3.135-5.131-2.565c0,0-3.735,10.112-3.6,15.735.146,5.955.806,9.219,3.238,10.2,3.059,1.238,40.548,2,46.534.712s15.392-4.418,16.817-8.266,0-7.553-4.56-7.7" transform="translate(-282.404 -773.142)" fill="#fff"></path><path d="M526.043,1312.495l-.113-.015a4.144,4.144,0,0,1-2.223,1.943c-8.348,3.3-27.122,6.279-62.615,1.452-.1-.013-.192-.03-.287-.047.482,1.827,1.265,2.979,2.54,3.5,3.059,1.239,40.548,2,46.534.712,5.616-1.2,14.243-4.038,16.464-7.561-.1.008-.2.02-.3.02" transform="translate(-283.527 -807.546)" fill="#a1b4b5"></path><path d="M562.053,1047.258c-.016-.083-.037-.188-.056-.272a5.829,5.829,0,1,0-11.362,2.609l20,102.246a2.9,2.9,0,0,0,3.641,2.163c1.81-.326,3.207-1.688,2.881-3.5Z" transform="translate(-338.706 -641.409)" fill="#412c2a"></path><path d="M288.608,1048.37a5.828,5.828,0,0,0-7.634,3.11L238.15,1153.168a3.33,3.33,0,0,0,6.076,2.722l47.385-99.644c.034-.073.076-.167.107-.241a5.828,5.828,0,0,0-3.11-7.634" transform="translate(-146.371 -644.764)" fill="#412c2a"></path><path d="M305.992,1031.641a5.828,5.828,0,0,0-5.881,5.776l-.973,106.992a3.33,3.33,0,0,0,6.654.216l5.967-106.831c.005-.083.008-.188.01-.272a5.83,5.83,0,0,0-5.776-5.882" transform="translate(-184.055 -634.752)" fill="#5d3d3d"></path><path d="M63.146,1048.37a5.829,5.829,0,0,0-7.634,3.11L12.688,1153.168a3.33,3.33,0,0,0,6.076,2.722l47.384-99.644c.034-.073.077-.167.108-.241a5.829,5.829,0,0,0-3.11-7.634" transform="translate(-7.647 -644.764)" fill="#5d3d3d"></path><path d="M249.505,705.642c-30.867-.119-80.346-1.507-80.346-1.507s-14.471-1.9-20.818-21.165c-9.714-29.491-18.041-53.778-18.041-53.778s-3.123-15.613-24.981-15.961c-29.149-.463-87.779,0-87.779,0s-19.083,0-17,22.9c0,0,4.054,65.044,8.327,99.23,3.816,30.532,9.02,52.738,9.02,52.738s3.47,18.736,22.9,20.124c11.148.8,11.105,1.456,190.689,0a21.981,21.981,0,0,0,17.348-18.736c2.508-16.84,13.017-52.416,14.938-69.077,1.716-14.887-8.289-14.744-14.255-14.768" transform="translate(-0.234 -377.185)" fill="#e8683d"></path><path d="M390.208,905.363l-4.626,30.07H470.7l22.205-84.658-86.741-.925c-.231.925-15.96,55.513-15.96,55.513" transform="translate(-237.243 -522.9)" fill="#cc5c36"></path><path d="M338.978,1003.526H215.084a11.45,11.45,0,0,0,0,22.9H338.978a11.45,11.45,0,1,0,0-22.9" transform="translate(-125.294 -617.454)" fill="#e8683d"></path><path d="M25.054,691.46c-4.681-17.669-14.225-48.684-14.688-58.868-.694-15.266,11.1-19.083,11.1-19.083C-4.206,612.469.3,636.409.3,636.409s-1.388,17,9.368,107.9c1.339,11.316,27.294-40.71,27.294-40.71s-8.328,1.388-11.913-12.144" transform="translate(0 -377.462)" fill="#cc5c36"></path><path d="M458.913,851.935a11.244,11.244,0,0,0-13.427,8.506l-16.262,72.477-99.286.234c.335,7.588.382,14.994.033,22.478l108.281-.255a11.241,11.241,0,0,0,10.94-8.778l18.227-81.234a11.24,11.24,0,0,0-8.505-13.428" transform="translate(-203.006 -524.013)" fill="#e8683d"></path><g transform="translate(176.576 485.621)" opacity="0.08"><g clip-path="url(#f)"><path d="M493.256,1286.115c-6.439-.842-13.3-2.191-18.749-5.945-5.7-3.925-9.959-10.83-10.218-17.821a2.852,2.852,0,0,0-1.708.157s-3.735,10.113-3.6,15.735c.147,5.955.806,9.218,3.238,10.2,3.059,1.239,40.548,2,46.534.712a60.132,60.132,0,0,0,7.394-2.1,117.482,117.482,0,0,1-22.894-.942" transform="translate(-458.98 -1262.287)"></path></g></g><path d="M359.488,895.536c-9.287-1.98-47.117-7.129-80.625-7.379-30.663-.229-59.218,6.737-59.218,6.737l-.5,12.272s5.492,28.49,32.253,28.18c17.671-.2,77.886-4.451,77.886-4.451s15.143.025,15.078.379C358,925.79,356,924.067,369.526,922c1.971-6.567,5.721-23.1-10.037-26.461" transform="translate(-134.84 -546.466)" fill="#1c7d87"></path><path d="M359.488,895.536c-9.287-1.98-47.117-7.129-80.625-7.379-30.663-.229-59.218,6.737-59.218,6.737l-.5,12.272s5.492,28.49,32.253,28.18c17.671-.2,77.886-4.451,77.886-4.451s15.143.025,15.078.379C358,925.79,356,924.067,369.526,922c1.971-6.567,5.721-23.1-10.037-26.461" transform="translate(-134.84 -546.466)" fill="#1c7d87"></path><g transform="translate(84.31 349.524)" opacity="0.1"><g clip-path="url(#g)"><path d="M225.2,925.339c-6.916-3.722-3.366-12.824,2.745-13.966q-4.191-1.341-8.338-2.847l-.451,11.176s5.491,28.489,32.253,28.18c11.2-.13,39.475-1.882,58.692-3.149a6.513,6.513,0,0,1-.6-1.671c-28.767-2.248-58.5-3.838-84.3-17.724" transform="translate(-219.151 -908.526)"></path></g></g><g transform="translate(143.182 352.172)" opacity="0.1"><g clip-path="url(#h)"><path d="M409.19,921.986c-11.758-2.148-24.142-4.33-31.189-5.563-.235-.038-.472-.073-.706-.112-.046-.008-.08-.026-.126-.033-3.109-.544-4.991-.869-4.991-.869,8.229,2.883,16.381,5.581,23.174,6.928,13.652,2.708,22.925,25.178,22.7,25.7,3.377-.232,5.394-.374,5.394-.374s15.143.025,15.078.379a114.291,114.291,0,0,0,11.164-5.194,14.555,14.555,0,0,0-1.905-2.394c1.905-12.293-25.472-14.281-38.591-18.472" transform="translate(-372.178 -915.409)"></path></g></g><path d="M212.263,618.441c1.377-11.224-8.029-20.449-15.093-21.685-20.357-3.562-23.432-4.447-30.3-3.816-6.288.579-15.777,4.071-29.009,10.179-6.587,3.04.425,104.734,25.446,123.329,23.146.966,25.107-8.142,58.357-20.357-14.25-18.322-11.579-69.923-9.4-87.651" transform="translate(-83.389 -364.711)" fill="#f9c753"></path><path d="M148.92,676.006c-3.355-9.391-3.188-19.509-5.152-29.192a10.657,10.657,0,0,1-.12-3.655c-.934-4.588-1.7-9.11-2.368-13.426a10.243,10.243,0,0,1,1.526-7.341,9.907,9.907,0,0,1,.571-1.974c-.355-2.042-.66-4.095-.887-6.164-1.49.661-3.029,1.357-4.628,2.094-6.587,3.041.426,104.735,25.446,123.33,19.505.814,23.968-5.526,44.783-14.85-11.669-10.457-26.075-18.614-38.585-26.556-9.207-5.845-16.82-11.727-20.587-22.266" transform="translate(-83.389 -377.941)" fill="#f0bb50"></path><path d="M525.767,936.88c-7.884,1.689-13.3-1.829-20.225,3.565-4.226,3.294-10.766,13.135-14.929,21.462-2.325,4.65-9.064,7.1-17.257,94.144a183.19,183.19,0,0,0,20.594,2.943c7.754-25.884,24.4-81.434,32.255-107.65a23.83,23.83,0,0,0-.416-14.4Z" transform="translate(-291.249 -576.448)" fill="#1c7d87"></path><g transform="translate(182.107 391.418)" opacity="0.1"><g clip-path="url(#i)"><path d="M505.5,1041.945c-1.375-1.8-2.7-3.632-4.026-5.471-.673-.936-1.345-1.873-2.025-2.8-.3-.416-.611-.829-.912-1.247-3.951-4.757-8.053-9.611-11.136-15-3.295,7.814-8.313,27.315-14.042,88.185a183.247,183.247,0,0,0,20.594,2.943c4.224-14.1,11.086-37,17.729-59.173a92.544,92.544,0,0,1-6.181-7.433" transform="translate(-473.356 -1017.423)"></path></g></g><path d="M315,634.9c-11.363-32.127-24.444-30.851-24.444-30.851s-14.334,24.07,1.041,54.3c23.856,46.9,38.558,44.986,38.867,45.016,7.712.746,55.5-1.762,55.5-1.762,1.478-7.75,3.239-10.293,3.239-10.293l-50.424-12.838A147.754,147.754,0,0,1,315,634.9" transform="translate(-175.036 -371.659)" fill="#f9c753"></path><path d="M339,730.8c-5.776-8.814-9.34-18.658-12.973-28.472.523,12.235,1.342,24.456,2.615,36.626,17,26.139,27.126,24.859,27.382,24.884,7.712.746,55.5-1.762,55.5-1.762a53.548,53.548,0,0,1,1.545-6.257c-10.487-.623-20.967-1.251-31.429-1.787-19.068-.975-31.936-6.893-42.644-23.233" transform="translate(-200.6 -432.133)" fill="#f0bb50"></path><path d="M42.04,845.34s-21.28,2.313-20.817,18.967,5.551,53.2,9.483,66.385c0,0,5.32,21.511,27.063,21.049l77.257-.463L111.9,850.429Z" transform="translate(-13.054 -520.125)" fill="#cc5c36"></path><path d="M262.423,935.21l-18.617-71.243a11.239,11.239,0,0,0-21.747,5.683l20.817,79.661a11.241,11.241,0,0,0,10.874,8.4h.027l9.592-.023c.349-7.483.3-14.889-.033-22.477Z" transform="translate(-136.403 -526.417)" fill="#e8683d"></path><path d="M113.222,615.683c-6.7-.5-17.632,5.432-21.552,23.128-3.868,17.458-11.725,56.456-2.942,66.754,15.006,12.192,58.45,14.632,58.45,14.632l4.815-11.26L111.557,687.7c-1.4-47.358,20.813-70.577,1.665-72.016" transform="translate(-52.132 -378.802)" fill="#f9c753"></path><path d="M91.666,695.913c-4.32-24.959,6.583-66.556,12.566-73.411-5.1,3.227-10.153,9.646-12.562,20.523-3.868,17.458-11.725,56.456-2.942,66.754,15.006,12.193,58.45,14.632,58.45,14.632l.09-.212c-12.462-1.693-24.881-4.453-35.365-9.841-10.888-5.595-18.089-6.034-20.237-18.446" transform="translate(-52.131 -383.016)" fill="#f0bb50"></path><path d="M191.518,540.328l-2.3,5.665s2.007,2.918,2.211,9.711a12.12,12.12,0,0,1-2.834,7.706s9.462,11.751,22.54,8.56c4.79-1.168,2.128-12.16-.186-16.93-2.849-5.871-19.429-14.712-19.429-14.712" transform="translate(-116.039 -332.455)" fill="#e39c7f"></path><g transform="translate(78.843 209.769)" opacity="0.08"><g clip-path="url(#j)"><path d="M204.939,545.257c.023.132.041.265.055.4.3,3.032.74,6.046,1.1,9.072,1.742,14.493,16.409,13.685,17.746,13.366A46.208,46.208,0,0,0,221,558.073c-2.034-4.192-11.064-9.895-16.066-12.816" transform="translate(-204.939 -545.257)"></path></g></g><path d="M215.3,480.551s-16.731,2.9-28.519,8.474-1.373,15.212-1.373,15.212,5.289,14.625,13.236,19.167c4.462,2.549,14.171,3.428,19.127-1.855,4.2-4.482,2.947-22.175.006-32.072-1.319-4.44-2.478-8.925-2.478-8.925" transform="translate(-111.465 -295.675)" fill="#e39c7f"></path><path d="M172.991,446.168c-6.014,1.563-13.489,8.27-14.386,12.459-1.607,7.508,1.365,15.644,3.142,20.766,3.21,9.25,11.174,16.063,11.174,16.063l-1.675-14.087,6.367-.582a57.081,57.081,0,0,0,1.677-5.97c.219-1.772-1.407-8.116.278-9.018,3.562-1.909,14.52-2.928,20.273-4.234s4.13-14.907,3.006-16.211c-2.828-3.277-18.678-2.092-29.855.814" transform="translate(-97.304 -272.806)" fill="#1e2d2e"></path><path d="M186.185,534.937c-1.481-1.209-4.9-3.338-6.724-1.126s.454,7.739,3.352,9.605c1.976,1.272,7.309,2.653,7.114-1.418a8.775,8.775,0,0,0-3.742-7.061" transform="translate(-110.019 -327.853)" fill="#e39c7f"></path><path d="M275.242,877.541a12.31,12.31,0,0,0-.6-1.568,13.557,13.557,0,0,0-.824-1.472,38.148,38.148,0,0,0-3.762-4.81c-1-1.116-2.022-2.174-3.077-3.226-2.61-3.618-15.673-9.506-17.823-9.056-2.347.492-6.156,8.579-4.8,11.729a18.539,18.539,0,0,0,5.5,7.361c.4.3,5.505,4.316,6.8,5.066.232.294.478.586.7.883a14.208,14.208,0,0,1,1.212,1.895,11.511,11.511,0,0,1,.466,1.057l.487,1.186,1.953,4.753.031.077a1.7,1.7,0,0,0,3.188-1.173l-1.605-4.987-.4-1.248a10.552,10.552,0,0,0-.5-1.35,17.856,17.856,0,0,0-1.438-2.553c-.089-.132-.182-.252-.272-.382.121-.114.243-.239.365-.36a29.314,29.314,0,0,1,2.092,3.158,25.848,25.848,0,0,1,1.857,5.364c.5,1.936.95,3.932,1.335,5.9l.005.027a1.7,1.7,0,0,0,3.351-.575c-.3-2.089-.65-4.126-1.076-6.193a28.947,28.947,0,0,0-1.887-6.35,37.451,37.451,0,0,0-2.868-4.725c.039-.055.079-.108.117-.163.043.055.09.108.133.162a31.411,31.411,0,0,1,3.12,4.6A54.811,54.811,0,0,1,269,885.919c.614,1.872,1.2,3.773,1.761,5.661l.005.015a1.7,1.7,0,0,0,3.282-.886c-.475-1.968-.972-3.907-1.505-5.858a56.928,56.928,0,0,0-1.9-5.967,34.794,34.794,0,0,0-3.277-5.5c-.188-.268-.385-.524-.575-.787.024.025.051.049.076.074a34.461,34.461,0,0,1,3.544,4.072,9.631,9.631,0,0,1,.638,1.005,9.42,9.42,0,0,1,.487,1.1c.328.84.624,1.716.9,2.6.556,1.77,1.055,3.612,1.479,5.415l.007.033a1.7,1.7,0,0,0,3.33-.684c-.338-1.959-.731-3.853-1.209-5.78-.242-.961-.5-1.922-.816-2.892" transform="translate(-150.173 -527.535)" fill="#e39c7f"></path><g transform="translate(93.898 329.862)" opacity="0.06"><g clip-path="url(#k)"><path d="M261.618,890.181c-.573-1.442-2.708-7.137-3.165-8.555-2.422-2.952-5.767-4.786-8.418-7.938-3.259-3.872-2.266-7.647-1.787-12.674a7.865,7.865,0,0,1,1.247-3.593,1.841,1.841,0,0,0-.339.008c-2.347.492-6.156,8.579-4.8,11.73a18.541,18.541,0,0,0,5.495,7.361c.4.3,5.506,4.316,6.8,5.066.232.294.479.586.7.883a14.189,14.189,0,0,1,1.211,1.895,11.428,11.428,0,0,1,.466,1.057l.487,1.187,1.953,4.753.031.077a1.636,1.636,0,0,0,1.084.949c-.364-.734-.68-1.484-.966-2.2" transform="translate(-244.071 -857.418)" fill="#2d2821"></path></g></g><path d="M551.81,835.057c3.99.176,13.475.3,13.475.3.362-2.169-15.39-10.019-17.56-10.381-1.513-.252-9.679.357-14.471.83-7.726.762-6.953,8.934-6.121,10.259,2.31,3.675,7.519,5.1,10.7,5.542,1.506.816,8.578,1.461,9.144,1.423s7.583-.735,7.583-.735.261-3.024-3.323-3.017a24.074,24.074,0,0,1-6.564-1.207c-1.573-2.389,2.95-3.195,7.139-3.01" transform="translate(-324.027 -507.556)" fill="#e39c7f"></path><g transform="translate(202.604 319.315)" opacity="0.06"><g clip-path="url(#l)"><path d="M529.85,831.173a5.148,5.148,0,0,1-.005-1.172c-4.024,2.442-3.39,8.106-2.708,9.19,2.31,3.675,7.52,5.1,10.7,5.543,1.13.611,5.386,1.128,7.685,1.332-8-2.083-14.612-6.722-15.667-14.892" transform="translate(-526.634 -830.001)" fill="#2d2821"></path></g></g><path d="M569,1235.487c-.3-.2-16.976,6.552-16.976,6.552l7.942,11.219c15.784,5.559,17.571-8.24,17.571-8.24s-8.24-9.332-8.538-9.53" transform="translate(-339.654 -760.174)" fill="#e39c7f"></path><path d="M624.5,1263.127c-13.249-.734-34.712-9.215-34.712-9.215s-2.784-.069-5.11,5.742c-2.4,6-11.711,5.78-11.711,5.78s3.455,13.585,6.747,16.4c2.888,2.474,7.051,2.58,10.655,1.929s6.6-2.007,11.967-1.392c10.73,1.228,16.433,3.676,27.221-2.049s6.719-16.546-5.057-17.2" transform="translate(-352.54 -771.513)" fill="#fff"></path><path d="M640.743,1307.227c-6.217,4.1-14.589,2.4-21.4,1.228-3.574-.614-7.224-1.172-10.829-.5-3.551.663-6.966,1.863-10.563,2.3a23.869,23.869,0,0,1-8.616-.329,4.651,4.651,0,0,0,.453.46c2.888,2.474,7.051,2.58,10.654,1.928s6.6-2.007,11.967-1.392c10.73,1.228,16.433,3.676,27.221-2.049,4.425-2.349,6.347-5.554,6.266-8.564-.318,2.273-2.53,5.19-5.149,6.916" transform="translate(-362.607 -800.062)" fill="#a1b4b5"></path><path d="M383.347,954.073c5.631,31.6,20.26,47.928,68.338,107.3,6.614-1.431,13.681-5.016,17.96-10.168C446.809,998.477,420.81,949.855,416.7,941.633c-4.235-8.469-40.224-26.124-33.352,12.44" transform="translate(-235.333 -572.314)" fill="#1c7d87"></path><g transform="translate(148.027 381.824)" opacity="0.1"><g clip-path="url(#m)"><path d="M442.91,1069.285c-10.065-13.236-18.758-27.4-27.259-41.669-6.534-10.969-13.231-21.821-19.171-33.069a62.472,62.472,0,0,0-11.71-2.06c5.64,31.558,20.283,47.9,68.326,107.231a33.075,33.075,0,0,0,12.517-5.368,181.67,181.67,0,0,1-22.7-25.063" transform="translate(-384.771 -992.486)"></path></g></g><g transform="translate(220.429 492.451)" opacity="0.08"><g clip-path="url(#n)"><path d="M631.1,1295.106c-8.657,3.212-18.79,1.926-27.553-.157a88.771,88.771,0,0,1-13.4-4.181c-5.15-2.14-7.606-6.177-9.878-10.728a18.84,18.84,0,0,1-7.3,1.471s3.455,13.585,6.747,16.4c2.888,2.474,7.051,2.58,10.655,1.928s6.6-2.007,11.967-1.392c10.73,1.228,16.433,3.676,27.221-2.049a16.305,16.305,0,0,0,2.666-1.748c-.371.158-.745.31-1.126.452" transform="translate(-572.969 -1280.04)"></path></g></g><path d="M486.287,0H327.077a18.929,18.929,0,0,0-18.929,18.929V166.5l33.833-36.049H486.287a18.929,18.929,0,0,0,18.929-18.929v-92.6A18.929,18.929,0,0,0,486.287,0" transform="translate(-189.599 0.002)" fill="#dfedfa"></path><path d="M909.938,114.518h-149.1a17.557,17.557,0,0,0-17.557,17.557v85.886a17.557,17.557,0,0,0,17.557,17.557H896.114L927.5,268.955V132.075a17.557,17.557,0,0,0-17.557-17.557" transform="translate(-457.329 -70.46)" fill="#fff"></path></g></g><g transform="translate(145.895 16.455)"><g clip-path="url(#o)"><rect width="278.503" height="122.454" transform="translate(-0.609 0)" fill="url(#p)"></rect></g></g></g></svg> 